<?xml version="1.0" encoding="utf-8"?>
<!-- Generator: Adobe Illustrator 18.1.1, SVG Export Plug-In . SVG Version: 6.00 Build 0)  -->
<svg version="1.1" id="Layer_1" xmlns="http://www.w3.org/2000/svg" xmlns:xlink="http://www.w3.org/1999/xlink" x="0px" y="0px"
	 viewBox="0 0 350.942 74.675" style="enable-background:new 0 0 350.942 74.675;" xml:space="preserve">
<style type="text/css">
	.st0{fill:#FFFFFF;}
</style>
<g>
	<path class="st0" d="M173.684,63.509c-2.666,0-5.153-0.605-7.375-1.825c-5.443-2.988-8.763-9.365-9.106-17.494
		c-0.062-1.453-0.006-2.911,0.157-4.354c-3.534-1.537-5.976-3.292-6.479-3.667l-2.274-1.693l3.386-4.547l2.273,1.693
		c0.15,0.112,1.808,1.329,4.307,2.535c1.748-5.501,5.03-10.304,9.221-13.046c3.771-2.467,7.755-2.893,11.223-1.2
		c3.792,1.85,5.702,5.448,5.109,9.625c-0.841,5.933-6.26,11.408-12.338,12.465c-3.105,0.541-6.145,0.297-8.903-0.331
		c-0.043,0.749-0.05,1.51-0.018,2.281c0.258,6.101,2.507,10.752,6.171,12.764c3.68,2.021,8.6,1.368,14.224-1.887l2.453-1.419
		l2.84,4.907l-2.453,1.42C181.768,62.242,177.539,63.509,173.684,63.509z M163.893,36.089c2.178,0.521,4.552,0.738,6.923,0.327
		c3.993-0.695,7.261-4.603,7.696-7.676c0.329-2.319-0.974-3.242-1.982-3.733c-2.052-1.002-4.195-0.092-5.632,0.849
		C168.09,27.691,165.339,31.412,163.893,36.089z"/>
	<path class="st0" d="M134.661,57.455c5.106-3.004,7.724-7.658,7.37-13.104c-0.349-5.354-3.217-9.442-8.078-11.511
		c-7.473-3.181-18.532-1.154-28.047,4.754c1.333-10.224,3.875-21.828,5.387-26.177l0.93-2.677l-5.355-1.861l-0.931,2.678
		c-1.907,5.488-5.411,21.786-6.348,33.844c-0.088,1.14,0.516,2.221,1.533,2.742c1.016,0.521,2.248,0.381,3.121-0.356
		c9.943-8.39,21.584-10.244,27.489-7.731c2.912,1.24,4.43,3.419,4.641,6.663c0.214,3.292-1.329,5.933-4.587,7.85
		c-6.863,4.039-18.751,3.528-25.958-1.114l-2.383-1.535l-3.07,4.766l2.383,1.535c4.843,3.119,11.256,4.712,17.491,4.712
		C125.537,60.933,130.696,59.788,134.661,57.455z"/>
	<path class="st0" d="M229.038,17.131c-7.233-2.976-14.163,0.128-20.631,4.88c-0.015-0.374-0.03-0.735-0.042-1.07l-0.103-2.833
		l-5.666,0.205l0.103,2.833c0.049,1.352,0.132,3.169,0.241,5.271c-1.201,1.035-2.383,2.084-3.544,3.116l-3.479,3.08l3.756,4.247
		l3.487-3.088c0.063-0.056,0.126-0.112,0.19-0.168c0.572,9.282,1.4,20.218,2.125,24.596l0.464,2.796l5.593-0.926l-0.463-2.797
		c-0.769-4.64-1.755-18.318-2.318-28.353c6.323-5.232,12.375-8.908,18.182-6.525c6.779,2.635,5.242,23.211,2.517,33.502l-0.726,2.74
		l5.48,1.451l0.726-2.74C235.022,57.005,243.391,22.708,229.038,17.131z"/>
	<path class="st0" d="M328.253,63.308c15.673-0.473,22.688-12.104,22.688-23.421c0-8.918-7.513-21.478-24.214-21.478
		c-7.601,0-13.97,2.481-18.419,7.176c-3.967,4.186-6.152,9.91-6.152,16.117c0,13.273,5.852,17.983,10.862,17.983
		c7.59,0,10.441-6.746,10.559-7.033l1.074-2.624l-5.246-2.149l-1.074,2.623c-0.015,0.035-1.483,3.514-5.312,3.514
		c-3.373,0-5.192-6.345-5.192-12.314c0-8.13,4.95-17.624,18.901-17.624c12.791,0,18.544,9.245,18.544,15.809
		c0,2.878-0.828,17.261-17.19,17.754l-2.833,0.085l0.171,5.667L328.253,63.308z"/>
	<path class="st0" d="M290.763,21.442c-5.646,0-12.894,0.002-21.225,0.468c0.64-1.02,1.312-1.988,2.022-2.863l1.786-2.201
		l-4.403-3.572l-1.785,2.202c-1.635,2.016-3.119,4.365-4.392,6.907c-4.829,0.404-9.935,0.979-15.248,1.807l-2.801,0.437l0.873,5.602
		l2.801-0.437c4.107-0.64,8.093-1.124,11.925-1.494c-2.74,8.21-3.158,17.256,0.471,23.548c2.33,4.04,7.086,8.405,16.753,8.405
		c1.852,0,3.883-0.16,6.111-0.513l2.8-0.444l-0.887-5.599l-2.8,0.443c-8.579,1.359-14.32-0.365-17.066-5.125
		c-3.04-5.272-2.114-13.846,0.865-21.235c9.578-0.664,17.901-0.665,24.2-0.665h2.835v-5.669H290.763z"/>
	<g>
		<polygon class="st0" points="15.283,11.963 13.438,25.875 11.594,11.963 8.643,12.332 11.91,37.364 8.643,62.344 11.594,62.712 
			13.438,48.8 15.283,62.712 18.234,62.344 14.914,37.364 18.234,12.332 		"/>
		<path class="st0" d="M74.57,4.796l-0.369-1.107l-0.527-1.054l-0.737-0.896L72.04,1.002l-1.054-0.527l-1.107-0.368L68.72,0H5.955
			L4.796,0.106L3.688,0.474L2.635,1.002L1.739,1.739L1.002,2.635l-0.58,1.054L0.105,4.796L0,5.955V68.72l0.105,1.16l0.316,1.107
			l0.58,1.053l0.737,0.896l0.896,0.738l1.053,0.579l1.107,0.316l1.159,0.106H68.72l1.159-0.106l1.107-0.316l1.054-0.579l0.897-0.738
			l0.737-0.896l0.527-1.053l0.369-1.107l0.105-1.16V5.955L74.57,4.796z M26.877,11.963l0.106-1.16l0.369-1.159l0.527-1.001
			l0.737-0.949l0.896-0.738l1.054-0.527l1.107-0.369l1.16-0.105h6.007l1.16,0.105l1.106,0.369l1.054,0.527l0.896,0.738l0.738,0.949
			l0.58,1.001l0.316,1.159l0.106,1.16v5.955l-0.106,1.159l-0.316,1.107l-0.58,1.054l-0.738,0.895l-0.896,0.737l-1.054,0.58
			l-1.106,0.316l-1.16,0.105h-6.007l-1.16-0.105l-1.107-0.316l-1.054-0.58l-0.896-0.737l-0.737-0.895l-0.527-1.054l-0.369-1.107
			l-0.106-1.159V11.963z M20.922,62.712l-0.158,1.212l-0.316,1.107l-0.58,1.001l-0.738,0.949l-0.896,0.737l-1.001,0.527
			l-1.159,0.369l-1.159,0.105h-2.951l-1.212-0.105l-1.107-0.369l-1.001-0.527l-0.949-0.737l-0.738-0.949l-0.527-1.001l-0.369-1.107
			l-0.106-1.212V11.963l0.106-1.16l0.369-1.159l0.527-1.001l0.738-0.949l0.949-0.738L9.644,6.43l1.107-0.369l1.212-0.105h2.951
			l1.159,0.105l1.159,0.369l1.001,0.527l0.896,0.738l0.738,0.949l0.58,1.001l0.316,1.159l0.158,1.16V62.712z M68.72,62.712
			l-0.105,1.212l-0.369,1.107l-0.527,1.001l-0.791,0.949l-0.895,0.737l-1.001,0.527l-1.159,0.369l-1.159,0.105h-29.88l-1.16-0.105
			l-1.107-0.369l-1.054-0.527l-0.896-0.737l-0.737-0.949l-0.527-1.001l-0.369-1.107l-0.106-1.212V35.836l0.106-1.16l0.369-1.106
			l0.527-1.054l0.737-0.896l0.896-0.738l1.054-0.58l1.107-0.316l1.16-0.105h29.88l1.159,0.105l1.159,0.316l1.001,0.58l0.895,0.738
			l0.791,0.896l0.527,1.054l0.369,1.106l0.105,1.16V62.712z M68.72,17.918l-0.105,1.159l-0.369,1.107l-0.527,1.054l-0.791,0.895
			l-0.895,0.737l-1.001,0.58l-1.159,0.316l-1.159,0.105h-5.955l-1.16-0.105l-1.107-0.316l-1.054-0.58l-0.895-0.737l-0.738-0.895
			l-0.58-1.054l-0.316-1.107l-0.105-1.159v-5.955l0.105-1.16l0.316-1.159l0.58-1.001l0.738-0.949l0.895-0.738l1.054-0.527
			l1.107-0.369l1.16-0.105h5.955l1.159,0.105l1.159,0.369l1.001,0.527l0.895,0.738l0.791,0.949l0.527,1.001l0.369,1.159l0.105,1.16
			V17.918z"/>
		<polygon class="st0" points="63.714,12.859 63.082,11.963 62.291,11.225 61.342,10.75 60.289,10.487 59.181,10.487 58.128,10.75 
			57.179,11.225 56.388,11.963 55.756,12.859 55.387,13.86 55.282,14.914 55.387,16.021 55.756,17.022 56.388,17.918 57.179,18.603 
			58.128,19.13 59.181,19.394 60.289,19.394 61.342,19.13 62.291,18.603 63.082,17.918 63.714,17.022 64.083,16.021 64.241,14.914 
			64.083,13.86 		"/>
		<polygon class="st0" points="62.871,46.429 62.185,46.586 61.499,46.797 60.868,47.061 60.289,47.377 59.708,47.746 
			59.128,48.167 58.444,48.642 57.707,49.01 56.863,49.221 56.019,49.273 55.176,49.221 54.333,49.01 53.542,48.642 52.857,48.167 
			51.751,47.377 50.486,46.797 49.168,46.429 47.798,46.323 46.428,46.429 45.111,46.797 43.846,47.377 42.739,48.167 
			42.001,48.642 41.263,49.01 40.42,49.221 39.578,49.273 38.734,49.221 37.891,49.01 37.1,48.642 36.415,48.167 35.888,47.746 
			35.309,47.377 34.676,47.061 34.044,46.797 33.412,46.586 32.727,46.429 32.041,46.323 31.356,46.323 31.356,49.273 
			31.778,49.327 32.199,49.379 32.621,49.432 33.042,49.59 33.412,49.748 33.781,49.959 34.149,50.17 34.518,50.434 35.624,51.224 
			36.889,51.804 38.207,52.172 39.578,52.278 40.947,52.172 42.265,51.804 43.53,51.224 44.637,50.434 45.321,49.959 46.112,49.59 
			46.955,49.379 47.798,49.273 48.641,49.379 49.485,49.59 50.222,49.959 50.96,50.434 52.067,51.224 53.332,51.804 54.649,52.172 
			56.019,52.278 57.39,52.172 58.707,51.804 59.972,51.224 61.079,50.434 61.394,50.17 61.763,49.959 62.132,49.748 62.554,49.59 
			62.976,49.432 63.398,49.379 63.82,49.327 64.241,49.273 64.241,46.323 63.556,46.323 		"/>
		<polygon class="st0" points="62.871,37.469 62.185,37.628 61.499,37.838 60.868,38.102 60.289,38.418 59.708,38.787 
			59.128,39.208 58.444,39.683 57.707,40.052 56.863,40.263 56.019,40.315 55.176,40.263 54.333,40.052 53.542,39.683 
			52.857,39.208 51.751,38.418 50.486,37.838 49.168,37.469 47.798,37.364 46.428,37.469 45.111,37.838 43.846,38.418 
			42.739,39.208 42.001,39.683 41.263,40.052 40.42,40.263 39.578,40.315 38.734,40.263 37.891,40.052 37.1,39.683 36.415,39.208 
			35.888,38.787 35.309,38.418 34.676,38.102 34.044,37.838 33.412,37.628 32.727,37.469 32.041,37.364 31.356,37.364 
			31.356,40.315 31.778,40.368 32.199,40.42 32.621,40.473 33.042,40.631 33.412,40.789 33.781,41 34.149,41.211 34.518,41.475 
			35.624,42.265 36.889,42.845 38.207,43.213 39.578,43.319 40.947,43.213 42.265,42.845 43.53,42.265 44.637,41.475 45.321,41 
			46.112,40.631 46.955,40.42 47.798,40.315 48.641,40.42 49.485,40.631 50.222,41 50.96,41.475 52.067,42.265 53.332,42.845 
			54.649,43.213 56.019,43.319 57.39,43.213 58.707,42.845 59.972,42.265 61.079,41.475 61.394,41.211 61.763,41 62.132,40.789 
			62.554,40.631 62.976,40.473 63.398,40.42 63.82,40.368 64.241,40.315 64.241,37.364 63.556,37.364 		"/>
		<polygon class="st0" points="62.871,55.387 62.185,55.545 61.499,55.756 60.868,56.02 60.289,56.336 59.708,56.705 59.128,57.126 
			58.444,57.601 57.707,57.969 56.863,58.18 56.019,58.233 55.176,58.18 54.333,57.969 53.542,57.601 52.857,57.126 51.751,56.336 
			50.486,55.756 49.168,55.387 47.798,55.282 46.428,55.387 45.111,55.756 43.846,56.336 42.739,57.126 42.001,57.601 
			41.263,57.969 40.42,58.18 39.578,58.233 38.734,58.18 37.891,57.969 37.1,57.601 36.415,57.126 35.888,56.705 35.309,56.336 
			34.676,56.02 34.044,55.756 33.412,55.545 32.727,55.387 32.041,55.282 31.356,55.282 31.356,58.233 31.778,58.286 32.199,58.339 
			32.621,58.444 33.042,58.549 33.412,58.708 33.781,58.919 34.149,59.129 34.518,59.393 35.624,60.183 36.889,60.762 
			38.207,61.131 39.578,61.237 40.947,61.131 42.265,60.762 43.53,60.183 44.637,59.393 45.321,58.919 46.112,58.549 46.955,58.339 
			47.798,58.233 48.641,58.339 49.485,58.549 50.222,58.919 50.96,59.393 52.067,60.183 53.332,60.762 54.649,61.131 56.019,61.237 
			57.39,61.131 58.707,60.762 59.972,60.183 61.079,59.393 61.394,59.129 61.763,58.919 62.132,58.708 62.554,58.549 62.976,58.444 
			63.398,58.339 63.82,58.286 64.241,58.233 64.241,55.282 63.556,55.282 		"/>
	</g>
</g>
<g>
</g>
<g>
</g>
<g>
</g>
<g>
</g>
<g>
</g>
<g>
</g>
</svg>
